<svg xmlns="http://www.w3.org/2000/svg" xmlns:xlink="http://www.w3.org/1999/xlink" contentStyleType="text/css" data-diagram-type="CLASS" height="523px" preserveAspectRatio="none" style="width:878px;height:523px;background:#FFFFFF;" version="1.1" viewBox="0 0 878 523" width="878px" zoomAndPan="magnify"><defs/><g><!--class NotificacaoCondicao--><g class="entity" data-entity="NotificacaoCondicao" data-source-line="2" data-uid="ent0002" id="entity_NotificacaoCondicao"><rect fill="#F1F1F1" height="80.5938" rx="2.5" ry="2.5" style="stroke:#181818;stroke-width:0.5;" width="175.1855" x="7" y="23.3"/><ellipse cx="22" cy="39.3" fill="#EB937F" rx="11" ry="11" style="stroke:#181818;stroke-width:1;"/><path d="M26.1094,45.3 L18.3906,45.3 L18.3906,32.9094 L26.1094,32.9094 L26.1094,35.0656 L20.8438,35.0656 L20.8438,37.7375 L25.6094,37.7375 L25.6094,39.8938 L20.8438,39.8938 L20.8438,43.1438 L26.1094,43.1438 L26.1094,45.3 Z " fill="#000000"/><text fill="#000000" font-family="sans-serif" font-size="14" lengthAdjust="spacing" textLength="143.1855" x="36" y="44.1467">NotificacaoCondicao</text><line style="stroke:#181818;stroke-width:0.5;" x1="8" x2="181.1855" y1="55.3" y2="55.3"/><text fill="#000000" font-family="sans-serif" font-size="14" lengthAdjust="spacing" textLength="45.1377" x="13" y="72.2951">ACIMA</text><text fill="#000000" font-family="sans-serif" font-size="14" lengthAdjust="spacing" textLength="53.498" x="13" y="88.592">ABAIXO</text><line style="stroke:#181818;stroke-width:0.5;" x1="8" x2="181.1855" y1="95.8938" y2="95.8938"/></g><!--class OperacaoTipoOperacao--><g class="entity" data-entity="OperacaoTipoOperacao" data-source-line="7" data-uid="ent0003" id="entity_OperacaoTipoOperacao"><rect fill="#F1F1F1" height="113.1875" rx="2.5" ry="2.5" style="stroke:#181818;stroke-width:0.5;" width="197.2861" x="216.95" y="7"/><ellipse cx="231.95" cy="23" fill="#EB937F" rx="11" ry="11" style="stroke:#181818;stroke-width:1;"/><path d="M236.0594,29 L228.3406,29 L228.3406,16.6094 L236.0594,16.6094 L236.0594,18.7656 L230.7938,18.7656 L230.7938,21.4375 L235.5594,21.4375 L235.5594,23.5938 L230.7938,23.5938 L230.7938,26.8438 L236.0594,26.8438 L236.0594,29 Z " fill="#000000"/><text fill="#000000" font-family="sans-serif" font-size="14" lengthAdjust="spacing" textLength="165.2861" x="245.95" y="27.8467">OperacaoTipoOperacao</text><line style="stroke:#181818;stroke-width:0.5;" x1="217.95" x2="413.2361" y1="39" y2="39"/><text fill="#000000" font-family="sans-serif" font-size="14" lengthAdjust="spacing" textLength="71.6748" x="222.95" y="55.9951">DEPOSITO</text><text fill="#000000" font-family="sans-serif" font-size="14" lengthAdjust="spacing" textLength="48.5762" x="222.95" y="72.292">SAQUE</text><text fill="#000000" font-family="sans-serif" font-size="14" lengthAdjust="spacing" textLength="60.6211" x="222.95" y="88.5889">COMPRA</text><text fill="#000000" font-family="sans-serif" font-size="14" lengthAdjust="spacing" textLength="49.2529" x="222.95" y="104.8857">VENDA</text><line style="stroke:#181818;stroke-width:0.5;" x1="217.95" x2="413.2361" y1="112.1875" y2="112.1875"/></g><!--class Usuario--><g class="entity" data-entity="Usuario" data-source-line="16" data-uid="ent0004" id="entity_Usuario"><rect fill="#F1F1F1" height="113.1875" rx="2.5" ry="2.5" style="stroke:#181818;stroke-width:0.5;" width="100.4639" x="460.36" y="7"/><ellipse cx="482.2269" cy="23" fill="#ADD1B2" rx="11" ry="11" style="stroke:#181818;stroke-width:1;"/><path d="M485.1956,28.6406 Q484.6175,28.9375 483.9769,29.0781 Q483.3363,29.2344 482.6331,29.2344 Q480.1331,29.2344 478.805,27.5938 Q477.4925,25.9375 477.4925,22.8125 Q477.4925,19.6875 478.805,18.0313 Q480.1331,16.375 482.6331,16.375 Q483.3363,16.375 483.9769,16.5313 Q484.6331,16.6875 485.1956,16.9844 L485.1956,19.7031 Q484.5706,19.125 483.9769,18.8594 Q483.3831,18.5781 482.7581,18.5781 Q481.4144,18.5781 480.7269,19.6563 Q480.0394,20.7188 480.0394,22.8125 Q480.0394,24.9063 480.7269,25.9844 Q481.4144,27.0469 482.7581,27.0469 Q483.3831,27.0469 483.9769,26.7813 Q484.5706,26.5 485.1956,25.9219 L485.1956,28.6406 Z " fill="#000000"/><text fill="#000000" font-family="sans-serif" font-size="14" lengthAdjust="spacing" textLength="53.2041" x="497.7529" y="27.8467">Usuario</text><line style="stroke:#181818;stroke-width:0.5;" x1="461.36" x2="559.8239" y1="39" y2="39"/><text fill="#000000" font-family="sans-serif" font-size="14" lengthAdjust="spacing" textLength="51.3516" x="466.36" y="55.9951">Long id</text><text fill="#000000" font-family="sans-serif" font-size="14" lengthAdjust="spacing" textLength="84.8408" x="466.36" y="72.292">String email</text><text fill="#000000" font-family="sans-serif" font-size="14" lengthAdjust="spacing" textLength="88.4639" x="466.36" y="88.5889">String senha</text><text fill="#000000" font-family="sans-serif" font-size="14" lengthAdjust="spacing" textLength="85.9209" x="466.36" y="104.8857">String nome</text><line style="stroke:#181818;stroke-width:0.5;" x1="461.36" x2="559.8239" y1="112.1875" y2="112.1875"/></g><!--class Carteira--><g class="entity" data-entity="Carteira" data-source-line="23" data-uid="ent0005" id="entity_Carteira"><rect fill="#F1F1F1" height="96.8906" rx="2.5" ry="2.5" style="stroke:#181818;stroke-width:0.5;" width="173.5195" x="197.83" y="221.63"/><ellipse cx="252.121" cy="237.63" fill="#ADD1B2" rx="11" ry="11" style="stroke:#181818;stroke-width:1;"/><path d="M255.0898,243.2706 Q254.5116,243.5675 253.871,243.7081 Q253.2304,243.8644 252.5273,243.8644 Q250.0273,243.8644 248.6991,242.2238 Q247.3866,240.5675 247.3866,237.4425 Q247.3866,234.3175 248.6991,232.6613 Q250.0273,231.005 252.5273,231.005 Q253.2304,231.005 253.871,231.1613 Q254.5273,231.3175 255.0898,231.6144 L255.0898,234.3331 Q254.4648,233.755 253.871,233.4894 Q253.2773,233.2081 252.6523,233.2081 Q251.3085,233.2081 250.621,234.2863 Q249.9335,235.3488 249.9335,237.4425 Q249.9335,239.5363 250.621,240.6144 Q251.3085,241.6769 252.6523,241.6769 Q253.2773,241.6769 253.871,241.4113 Q254.4648,241.13 255.0898,240.5519 L255.0898,243.2706 Z " fill="#000000"/><text fill="#000000" font-family="sans-serif" font-size="14" lengthAdjust="spacing" textLength="56.4375" x="272.621" y="242.4767">Carteira</text><line style="stroke:#181818;stroke-width:0.5;" x1="198.83" x2="370.3495" y1="253.63" y2="253.63"/><text fill="#000000" font-family="sans-serif" font-size="14" lengthAdjust="spacing" textLength="51.3516" x="203.83" y="270.6251">Long id</text><text fill="#000000" font-family="sans-serif" font-size="14" lengthAdjust="spacing" textLength="147.1436" x="203.83" y="286.922">BigDecimal saldoFiat</text><text fill="#000000" font-family="sans-serif" font-size="14" lengthAdjust="spacing" textLength="161.5195" x="203.83" y="303.2189">BigDecimal saldoTrade</text><line style="stroke:#181818;stroke-width:0.5;" x1="198.83" x2="370.3495" y1="310.5206" y2="310.5206"/></g><!--class CarteiraMoeda--><g class="entity" data-entity="CarteiraMoeda" data-source-line="29" data-uid="ent0006" id="entity_CarteiraMoeda"><rect fill="#F1F1F1" height="96.8906" rx="2.5" ry="2.5" style="stroke:#181818;stroke-width:0.5;" width="175.4746" x="196.86" y="419.97"/><ellipse cx="230.0011" cy="435.97" fill="#ADD1B2" rx="11" ry="11" style="stroke:#181818;stroke-width:1;"/><path d="M232.9698,441.6106 Q232.3917,441.9075 231.7511,442.0481 Q231.1104,442.2044 230.4073,442.2044 Q227.9073,442.2044 226.5792,440.5638 Q225.2667,438.9075 225.2667,435.7825 Q225.2667,432.6575 226.5792,431.0013 Q227.9073,429.345 230.4073,429.345 Q231.1104,429.345 231.7511,429.5013 Q232.4073,429.6575 232.9698,429.9544 L232.9698,432.6731 Q232.3448,432.095 231.7511,431.8294 Q231.1573,431.5481 230.5323,431.5481 Q229.1886,431.5481 228.5011,432.6263 Q227.8136,433.6888 227.8136,435.7825 Q227.8136,437.8763 228.5011,438.9544 Q229.1886,440.0169 230.5323,440.0169 Q231.1573,440.0169 231.7511,439.7513 Q232.3448,439.47 232.9698,438.8919 L232.9698,441.6106 Z " fill="#000000"/><text fill="#000000" font-family="sans-serif" font-size="14" lengthAdjust="spacing" textLength="103.1611" x="248.0324" y="440.8167">CarteiraMoeda</text><line style="stroke:#181818;stroke-width:0.5;" x1="197.86" x2="371.3346" y1="451.97" y2="451.97"/><text fill="#000000" font-family="sans-serif" font-size="14" lengthAdjust="spacing" textLength="51.3516" x="202.86" y="468.9651">Long id</text><text fill="#000000" font-family="sans-serif" font-size="14" lengthAdjust="spacing" textLength="94.5137" x="202.86" y="485.262">String moeda</text><text fill="#000000" font-family="sans-serif" font-size="14" lengthAdjust="spacing" textLength="163.4746" x="202.86" y="501.5589">BigDecimal quantidade</text><line style="stroke:#181818;stroke-width:0.5;" x1="197.86" x2="371.3346" y1="508.8606" y2="508.8606"/></g><!--class Operacao--><g class="entity" data-entity="Operacao" data-source-line="35" data-uid="ent0007" id="entity_Operacao"><rect fill="#F1F1F1" height="145.7813" rx="2.5" ry="2.5" style="stroke:#181818;stroke-width:0.5;" width="208.5674" x="406.31" y="197.19"/><ellipse cx="472.4955" cy="213.19" fill="#ADD1B2" rx="11" ry="11" style="stroke:#181818;stroke-width:1;"/><path d="M475.4643,218.8306 Q474.8862,219.1275 474.2455,219.2681 Q473.6049,219.4244 472.9018,219.4244 Q470.4018,219.4244 469.0737,217.7838 Q467.7612,216.1275 467.7612,213.0025 Q467.7612,209.8775 469.0737,208.2213 Q470.4018,206.565 472.9018,206.565 Q473.6049,206.565 474.2455,206.7213 Q474.9018,206.8775 475.4643,207.1744 L475.4643,209.8931 Q474.8393,209.315 474.2455,209.0494 Q473.6518,208.7681 473.0268,208.7681 Q471.683,208.7681 470.9955,209.8463 Q470.308,210.9088 470.308,213.0025 Q470.308,215.0963 470.9955,216.1744 Q471.683,217.2369 473.0268,217.2369 Q473.6518,217.2369 474.2455,216.9713 Q474.8393,216.69 475.4643,216.1119 L475.4643,218.8306 Z " fill="#000000"/><text fill="#000000" font-family="sans-serif" font-size="14" lengthAdjust="spacing" textLength="67.6963" x="492.9955" y="218.0367">Operacao</text><line style="stroke:#181818;stroke-width:0.5;" x1="407.31" x2="613.8774" y1="229.19" y2="229.19"/><text fill="#000000" font-family="sans-serif" font-size="14" lengthAdjust="spacing" textLength="51.3516" x="412.31" y="246.1851">Long id</text><text fill="#000000" font-family="sans-serif" font-size="14" lengthAdjust="spacing" textLength="196.5674" x="412.31" y="262.482">OperacaoTipoOperacao tipo</text><text fill="#000000" font-family="sans-serif" font-size="14" lengthAdjust="spacing" textLength="94.5137" x="412.31" y="278.7789">String moeda</text><text fill="#000000" font-family="sans-serif" font-size="14" lengthAdjust="spacing" textLength="163.4746" x="412.31" y="295.0757">BigDecimal quantidade</text><text fill="#000000" font-family="sans-serif" font-size="14" lengthAdjust="spacing" textLength="118.9932" x="412.31" y="311.3726">BigDecimal valor</text><text fill="#000000" font-family="sans-serif" font-size="14" lengthAdjust="spacing" textLength="174.0977" x="412.31" y="327.6695">LocalDateTime dataHora</text><line style="stroke:#181818;stroke-width:0.5;" x1="407.31" x2="613.8774" y1="334.9713" y2="334.9713"/></g><!--class Notificacao--><g class="entity" data-entity="Notificacao" data-source-line="44" data-uid="ent0008" id="entity_Notificacao"><rect fill="#F1F1F1" height="145.7813" rx="2.5" ry="2.5" style="stroke:#181818;stroke-width:0.5;" width="222.3896" x="649.4" y="197.19"/><ellipse cx="717.1681" cy="213.19" fill="#ADD1B2" rx="11" ry="11" style="stroke:#181818;stroke-width:1;"/><path d="M720.1368,218.8306 Q719.5587,219.1275 718.9181,219.2681 Q718.2774,219.4244 717.5743,219.4244 Q715.0743,219.4244 713.7462,217.7838 Q712.4337,216.1275 712.4337,213.0025 Q712.4337,209.8775 713.7462,208.2213 Q715.0743,206.565 717.5743,206.565 Q718.2774,206.565 718.9181,206.7213 Q719.5743,206.8775 720.1368,207.1744 L720.1368,209.8931 Q719.5118,209.315 718.9181,209.0494 Q718.3243,208.7681 717.6993,208.7681 Q716.3556,208.7681 715.6681,209.8463 Q714.9806,210.9088 714.9806,213.0025 Q714.9806,215.0963 715.6681,216.1744 Q716.3556,217.2369 717.6993,217.2369 Q718.3243,217.2369 718.9181,216.9713 Q719.5118,216.69 720.1368,216.1119 L720.1368,218.8306 Z " fill="#000000"/><text fill="#000000" font-family="sans-serif" font-size="14" lengthAdjust="spacing" textLength="78.3535" x="737.6681" y="218.0367">Notificacao</text><line style="stroke:#181818;stroke-width:0.5;" x1="650.4" x2="870.7896" y1="229.19" y2="229.19"/><text fill="#000000" font-family="sans-serif" font-size="14" lengthAdjust="spacing" textLength="51.3516" x="655.4" y="246.1851">Long id</text><text fill="#000000" font-family="sans-serif" font-size="14" lengthAdjust="spacing" textLength="94.5137" x="655.4" y="262.482">String moeda</text><text fill="#000000" font-family="sans-serif" font-size="14" lengthAdjust="spacing" textLength="153.7539" x="655.4" y="278.7789">BigDecimal precoAlvo</text><text fill="#000000" font-family="sans-serif" font-size="14" lengthAdjust="spacing" textLength="210.3896" x="655.4" y="295.0757">NotificacaoCondicao condicao</text><text fill="#000000" font-family="sans-serif" font-size="14" lengthAdjust="spacing" textLength="95.9629" x="655.4" y="311.3726">Boolean ativa</text><text fill="#000000" font-family="sans-serif" font-size="14" lengthAdjust="spacing" textLength="175.0068" x="655.4" y="327.6695">LocalDateTime criadaEm</text><line style="stroke:#181818;stroke-width:0.5;" x1="650.4" x2="870.7896" y1="334.9713" y2="334.9713"/></g><!--class Contato--><g class="entity" data-entity="Contato" data-source-line="53" data-uid="ent0009" id="entity_Contato"><rect fill="#F1F1F1" height="129.4844" rx="2.5" ry="2.5" style="stroke:#181818;stroke-width:0.5;" width="136.3662" x="26.41" y="205.34"/><ellipse cx="63.4732" cy="221.34" fill="#ADD1B2" rx="11" ry="11" style="stroke:#181818;stroke-width:1;"/><path d="M66.4419,226.9806 Q65.8638,227.2775 65.2232,227.4181 Q64.5826,227.5744 63.8794,227.5744 Q61.3794,227.5744 60.0513,225.9338 Q58.7388,224.2775 58.7388,221.1525 Q58.7388,218.0275 60.0513,216.3713 Q61.3794,214.715 63.8794,214.715 Q64.5826,214.715 65.2232,214.8713 Q65.8794,215.0275 66.4419,215.3244 L66.4419,218.0431 Q65.8169,217.465 65.2232,217.1994 Q64.6294,216.9181 64.0044,216.9181 Q62.6607,216.9181 61.9732,217.9963 Q61.2857,219.0588 61.2857,221.1525 Q61.2857,223.2463 61.9732,224.3244 Q62.6607,225.3869 64.0044,225.3869 Q64.6294,225.3869 65.2232,225.1213 Q65.8169,224.84 66.4419,224.2619 L66.4419,226.9806 Z " fill="#000000"/><text fill="#000000" font-family="sans-serif" font-size="14" lengthAdjust="spacing" textLength="55.3369" x="82.3761" y="226.1867">Contato</text><line style="stroke:#181818;stroke-width:0.5;" x1="27.41" x2="161.7762" y1="237.34" y2="237.34"/><text fill="#000000" font-family="sans-serif" font-size="14" lengthAdjust="spacing" textLength="51.3516" x="32.41" y="254.3351">Long id</text><text fill="#000000" font-family="sans-serif" font-size="14" lengthAdjust="spacing" textLength="85.9209" x="32.41" y="270.632">String nome</text><text fill="#000000" font-family="sans-serif" font-size="14" lengthAdjust="spacing" textLength="84.8408" x="32.41" y="286.9289">String email</text><text fill="#000000" font-family="sans-serif" font-size="14" lengthAdjust="spacing" textLength="101.1992" x="32.41" y="303.2257">String assunto</text><text fill="#000000" font-family="sans-serif" font-size="14" lengthAdjust="spacing" textLength="124.3662" x="32.41" y="319.5226">String mensagem</text><line style="stroke:#181818;stroke-width:0.5;" x1="27.41" x2="161.7762" y1="326.8244" y2="326.8244"/></g><!--link Usuario to Carteira--><g class="link" data-entity-1="Usuario" data-entity-2="Carteira" data-source-line="63" data-uid="lnk10" id="link_Usuario_Carteira"><path codeLine="63" d="M459.87,110.48 C423.43,143.46 374.43,187.8 337.5,221.21" fill="none" id="Usuario-Carteira" style="stroke:#181818;stroke-width:1;"/><polygon fill="#000000" points="412.8825,162.1112,421.5613,158.2215,417.6175,153.8631,412.8825,162.1112" style="stroke:#000000;stroke-width:1;"/><text fill="#000000" font-family="sans-serif" font-size="13" lengthAdjust="spacing" textLength="41.6025" x="425.59" y="163.2569">possui</text><text fill="#000000" font-family="sans-serif" font-size="13" lengthAdjust="spacing" textLength="8.271" x="444.1938" y="113.0949">1</text><text fill="#000000" font-family="sans-serif" font-size="13" lengthAdjust="spacing" textLength="8.271" x="336.0905" y="210.7117">1</text></g><!--link Carteira to CarteiraMoeda--><g class="link" data-entity-1="Carteira" data-entity-2="CarteiraMoeda" data-source-line="64" data-uid="lnk11" id="link_Carteira_CarteiraMoeda"><path codeLine="64" d="M244.44,318.86 C231.33,340.14 221.89,365.81 229.59,389.97 C232.9,400.34 238.16,410.51 244.14,419.89" fill="none" id="Carteira-CarteiraMoeda" style="stroke:#181818;stroke-width:1;"/><polygon fill="#000000" points="234.5752,386.5364,237.5409,377.5001,231.6631,377.4826,234.5752,386.5364" style="stroke:#000000;stroke-width:1;"/><text fill="#000000" font-family="sans-serif" font-size="13" lengthAdjust="spacing" textLength="49.0991" x="243.59" y="386.0369">cont&#233;m</text><text fill="#000000" font-family="sans-serif" font-size="13" lengthAdjust="spacing" textLength="8.271" x="230.5256" y="338.4991">1</text><text fill="#000000" font-family="sans-serif" font-size="13" lengthAdjust="spacing" textLength="6.5" x="231.7939" y="408.7379">*</text></g><!--link CarteiraMoeda to Carteira--><g class="link" data-entity-1="CarteiraMoeda" data-entity-2="Carteira" data-source-line="69" data-uid="lnk14" id="link_CarteiraMoeda_Carteira"><path codeLine="69" d="M293.89,419.65 C295.43,409.87 296.79,399.62 297.59,389.97 C299.55,366.48 297.22,340.45 294.01,318.75" fill="none" id="CarteiraMoeda-Carteira" style="stroke:#181818;stroke-width:1;"/><polygon fill="#000000" points="303.5959,376.5364,300.6463,385.578,306.5241,385.585,303.5959,376.5364" style="stroke:#000000;stroke-width:1;"/><text fill="#000000" font-family="sans-serif" font-size="13" lengthAdjust="spacing" textLength="70.1733" x="312.59" y="386.0369">pertence a</text><text fill="#000000" font-family="sans-serif" font-size="13" lengthAdjust="spacing" textLength="6.5" x="288.8101" y="408.8139">*</text><text fill="#000000" font-family="sans-serif" font-size="13" lengthAdjust="spacing" textLength="8.271" x="286.7913" y="338.7258">1</text></g><!--link Usuario to Operacao--><g class="link" data-entity-1="Usuario" data-entity-2="Operacao" data-source-line="65" data-uid="lnk12" id="link_Usuario_Operacao"><path codeLine="65" d="M510.59,120.47 C510.59,144 510.59,171.69 510.59,196.75" fill="none" id="Usuario-Operacao" style="stroke:#181818;stroke-width:1;"/><polygon fill="#000000" points="515.59,163.7564,518.5289,154.7113,512.6511,154.7113,515.59,163.7564" style="stroke:#000000;stroke-width:1;"/><text fill="#000000" font-family="sans-serif" font-size="13" lengthAdjust="spacing" textLength="43.3228" x="524.59" y="163.2569">realiza</text><text fill="#000000" font-family="sans-serif" font-size="13" lengthAdjust="spacing" textLength="8.271" x="502.1188" y="140.3908">1</text><text fill="#000000" font-family="sans-serif" font-size="13" lengthAdjust="spacing" textLength="6.5" x="504.3275" y="186.1191">*</text></g><!--link Usuario to Notificacao--><g class="link" data-entity-1="Usuario" data-entity-2="Notificacao" data-source-line="66" data-uid="lnk13" id="link_Usuario_Notificacao"><path codeLine="66" d="M561.18,105.97 C593,132 634.93,166.29 672.13,196.72" fill="none" id="Usuario-Notificacao" style="stroke:#181818;stroke-width:1;"/><polygon fill="#000000" points="644.4603,161.922,639.3196,153.9205,635.5982,158.4702,644.4603,161.922" style="stroke:#000000;stroke-width:1;"/><text fill="#000000" font-family="sans-serif" font-size="13" lengthAdjust="spacing" textLength="44.7383" x="649.59" y="163.2569">recebe</text><text fill="#000000" font-family="sans-serif" font-size="13" lengthAdjust="spacing" textLength="8.271" x="568.8755" y="107.9507">1</text><text fill="#000000" font-family="sans-serif" font-size="13" lengthAdjust="spacing" textLength="6.5" x="657.4361" y="186.0862">*</text></g><!--SRC=[bLEnRjim4Dtr5OGNjm4wTFLGG95Lr80bfP4SPBsGL_S0akTIj8SM_PeEGRx3FnRAiXL9KGE4Y-wEZ-yUZqzpyQbR8iqtMTahH6ZtHkJiwGT9aC09MnKY5dyY4LQShBAuZQxZrNqH_OtQ8yKENOElQCUN-7nccTuKvQegJaaPVz-afoWfiflRbkikpPTnGpNlQqlMSLcc0tMHr53NObFlmT65VyrsAqYrzDvHoD00wNwXHliJ-WNB1fkEBM42pYCvc62yfkqI9HdGeWQj-2k1dzoe7AW9oenHmV-LccPxpFTh3zQJ6l2DXjgdcfoz3ybx6ers3g3PdJj9q4lmM951eS33DtRm8gndbdTUS-TGSgmFhSufqybpq9varWXMWAS3J4YJZa11QdflmDQ3VqFMoGLl-IQmxAqV3X9j3Liqh_nwcwx3xr7aSPRcLJ7qxSMniy-pK3zzEiyjn8v36n9VegvsmLtDHaPQD3FnnoSJq6FI0EwUVo4SWgRVC8thFre3bVY00JdlHcQF_uA7q0XDMpW-DfaYXnx41wfPW-AFKJIKrl1Et0r3Q2MAeEGP]--></g></svg>